<?xml version="1.0" encoding="utf-8"?>
<!-- Generator: Adobe Illustrator 19.2.0, SVG Export Plug-In . SVG Version: 6.00 Build 0)  -->
<svg version="1.1" id="Layer_1" xmlns="http://www.w3.org/2000/svg" xmlns:xlink="http://www.w3.org/1999/xlink" x="0px" y="0px"
	 viewBox="0 0 118.2 45.3" style="enable-background:new 0 0 118.2 45.3;" xml:space="preserve">
<style type="text/css">
	.st0{fill:#26346F;}
</style>
<path id="XMLID_7_" class="st0" d="M69.5,15l-6.9,0l-4.9,14.7c-0.5,1.6-0.9,2.8-1.2,4c-0.4-1.6-0.7-2.5-0.9-3.2c0,0,0,0-4.8-15.3
	l0-0.1l-7.4,0l10.1,30.2l6,0L69.7,15L69.5,15z"/>
<path id="XMLID_3_" class="st0" d="M107.2,32.5c0.9,0,1.8,0.1,2.5,0.7c0.6,0.5,0.9,1.5,0.9,2.6c0,0.9-0.3,1.7-0.7,2.4
	c-0.7,1-1.6,1.2-2.7,1.2l-3.7,0l0-7L107.2,32.5z M106.4,20.9c0.5,0,1.5,0,2.2,0.3c0.9,0.4,1.4,1.3,1.4,2.5c0,0.8-0.3,1.6-0.7,2.1
	c-0.7,0.8-1.5,0.8-2.4,0.8l-3.5,0l0-5.7L106.4,20.9z M97.2,15l-0.5,0l0,30.2l12.1,0c5.7,0,9.3-3.4,9.3-8.7c0-2.6-0.8-4.5-2.7-6.1
	c-0.7-0.6-1.4-1-2.2-1.3c0.6-0.3,1.2-0.7,1.7-1.1c1.4-1.3,2.1-3.1,2.1-5.2c0-2.2-0.8-4-2.5-5.6c-2.1-1.8-4.3-2.2-7.5-2.2L97.2,15z"
	/>
<path id="XMLID_2_" class="st0" d="M95.1,15l-24.4,0l0,5.8c0,0,8.1,0,8.5,0l0,24.4l6.8,0l0-24.4c0.3,0,7.4,0,7.4,0l1.9-5.8L95.1,15z
	"/>
<path id="XMLID_1_" class="st0" d="M28,15.1L5,15.1c0,0,0.7,2.2,1.5,3.4l20.4,0c0,0,3.9,3,5.8,8.4l-21.4,0c-3.7-3-6.5-7.1-7.9-11.7
	c0.2-0.6,0.4-1.1,0.6-1.7l24,0c1.9-1.3,3.7-3.4,3.7-3.4l-26.1,0C6,9.5,6.3,9,6.7,8.4l26.3,0C33.7,7.5,35.1,5,35.1,5l-25.5,0
	c0.6-0.6,1.3-1.2,1.9-1.7l24.4,0C36.6,1.8,37.1,0,37.1,0L10.6,0C5.5,3.6,1.7,8.9,0,15.1c1.7,6.1,5.5,11.4,10.6,15.1l26.4,0
	C37,30.2,36.6,22.1,28,15.1"/>
</svg>
